<svg width="70" height="70" viewBox="0 0 70 70" fill="none" xmlns="http://www.w3.org/2000/svg">
<rect width="70" height="70" rx="10" fill="#F0D1FF"/>
<path d="M17.4941 48.5767L14.4346 57H13.1841L16.707 47.7578H17.5132L17.4941 48.5767ZM20.0586 57L16.9927 48.5767L16.9736 47.7578H17.7798L21.3154 57H20.0586ZM19.8999 53.5786V54.5815H14.7075V53.5786H19.8999ZM23.6514 50.1318V57H22.4707V50.1318H23.6514ZM22.3818 48.3101C22.3818 48.1196 22.439 47.9588 22.5532 47.8276C22.6717 47.6965 22.8452 47.6309 23.0737 47.6309C23.298 47.6309 23.4694 47.6965 23.5879 47.8276C23.7106 47.9588 23.772 48.1196 23.772 48.3101C23.772 48.492 23.7106 48.6486 23.5879 48.7798C23.4694 48.9067 23.298 48.9702 23.0737 48.9702C22.8452 48.9702 22.6717 48.9067 22.5532 48.7798C22.439 48.6486 22.3818 48.492 22.3818 48.3101ZM26.7109 51.2109V57H25.5366V50.1318H26.6792L26.7109 51.2109ZM28.8564 50.0938L28.8501 51.1855C28.7528 51.1644 28.6597 51.1517 28.5708 51.1475C28.4862 51.139 28.3888 51.1348 28.2788 51.1348C28.008 51.1348 27.7689 51.1771 27.5615 51.2617C27.3542 51.3464 27.1785 51.4648 27.0347 51.6172C26.8908 51.7695 26.7765 51.9515 26.6919 52.1631C26.6115 52.3704 26.5586 52.599 26.5332 52.8486L26.2031 53.0391C26.2031 52.6243 26.2433 52.235 26.3237 51.8711C26.4084 51.5072 26.5374 51.1855 26.7109 50.9062C26.8844 50.6227 27.1045 50.4027 27.3711 50.2461C27.6419 50.0853 27.9635 50.0049 28.3359 50.0049C28.4206 50.0049 28.5179 50.0155 28.6279 50.0366C28.738 50.0535 28.8141 50.0726 28.8564 50.0938ZM33.1348 50.1318V51.0332H29.4214V50.1318H33.1348ZM30.6782 48.4624H31.8525V55.2988C31.8525 55.5316 31.8885 55.7072 31.9604 55.8257C32.0324 55.9442 32.1255 56.0225 32.2397 56.0605C32.354 56.0986 32.4767 56.1177 32.6079 56.1177C32.7052 56.1177 32.8068 56.1092 32.9126 56.0923C33.0226 56.0711 33.1051 56.0542 33.1602 56.0415L33.1665 57C33.0734 57.0296 32.9507 57.0571 32.7983 57.0825C32.6502 57.1121 32.4704 57.127 32.2588 57.127C31.971 57.127 31.7065 57.0698 31.4653 56.9556C31.2241 56.8413 31.0316 56.6509 30.8877 56.3843C30.748 56.1134 30.6782 55.7495 30.6782 55.2925V48.4624ZM35.7881 50.1318V57H34.6074V50.1318H35.7881ZM34.5186 48.3101C34.5186 48.1196 34.5757 47.9588 34.6899 47.8276C34.8084 47.6965 34.9819 47.6309 35.2104 47.6309C35.4347 47.6309 35.6061 47.6965 35.7246 47.8276C35.8473 47.9588 35.9087 48.1196 35.9087 48.3101C35.9087 48.492 35.8473 48.6486 35.7246 48.7798C35.6061 48.9067 35.4347 48.9702 35.2104 48.9702C34.9819 48.9702 34.8084 48.9067 34.6899 48.7798C34.5757 48.6486 34.5186 48.492 34.5186 48.3101ZM38.8413 51.4966V57H37.6606V50.1318H38.7778L38.8413 51.4966ZM38.6001 53.3057L38.0542 53.2866C38.0584 52.8169 38.1198 52.3831 38.2383 51.9854C38.3568 51.5833 38.5324 51.2342 38.7651 50.938C38.9979 50.6418 39.2878 50.4132 39.6348 50.2524C39.9818 50.0874 40.3838 50.0049 40.8408 50.0049C41.1624 50.0049 41.4587 50.0514 41.7295 50.1445C42.0003 50.2334 42.2352 50.3752 42.4341 50.5698C42.633 50.7645 42.7874 51.0142 42.8975 51.3188C43.0075 51.6235 43.0625 51.9917 43.0625 52.4233V57H41.8882V52.4805C41.8882 52.1208 41.8268 51.833 41.7041 51.6172C41.5856 51.4014 41.4163 51.2448 41.1963 51.1475C40.9762 51.0459 40.7181 50.9951 40.4219 50.9951C40.0749 50.9951 39.785 51.0565 39.5522 51.1792C39.3195 51.3019 39.1333 51.4712 38.9937 51.687C38.854 51.9028 38.7524 52.1504 38.689 52.4297C38.6297 52.7048 38.6001 52.9967 38.6001 53.3057ZM43.0498 52.6582L42.2627 52.8994C42.2669 52.5228 42.3283 52.161 42.4468 51.814C42.5695 51.467 42.7451 51.158 42.9736 50.8872C43.2064 50.6164 43.492 50.4027 43.8306 50.2461C44.1691 50.0853 44.5563 50.0049 44.9922 50.0049C45.3604 50.0049 45.6862 50.0535 45.9697 50.1509C46.2575 50.2482 46.4987 50.3984 46.6934 50.6016C46.8923 50.8005 47.0425 51.0565 47.144 51.3696C47.2456 51.6828 47.2964 52.0552 47.2964 52.4868V57H46.1157V52.4741C46.1157 52.089 46.0544 51.7907 45.9316 51.5791C45.8132 51.3633 45.6439 51.2131 45.4238 51.1284C45.208 51.0396 44.9499 50.9951 44.6494 50.9951C44.3913 50.9951 44.1628 51.0396 43.9639 51.1284C43.765 51.2173 43.5978 51.34 43.4624 51.4966C43.327 51.6489 43.2233 51.8245 43.1514 52.0234C43.0837 52.2223 43.0498 52.4339 43.0498 52.6582ZM51.9238 57.127C51.4456 57.127 51.0119 57.0465 50.6226 56.8857C50.2375 56.7207 49.9053 56.4901 49.626 56.1938C49.3509 55.8976 49.1393 55.5464 48.9912 55.1401C48.8431 54.7339 48.769 54.2896 48.769 53.8071V53.5405C48.769 52.9819 48.8516 52.4847 49.0166 52.0488C49.1816 51.6087 49.4059 51.2363 49.6895 50.9316C49.973 50.627 50.2946 50.3963 50.6543 50.2397C51.014 50.0832 51.3864 50.0049 51.7715 50.0049C52.2624 50.0049 52.6855 50.0895 53.041 50.2588C53.4007 50.4281 53.6948 50.665 53.9233 50.9697C54.1519 51.2702 54.3211 51.6257 54.4312 52.0361C54.5412 52.4424 54.5962 52.8867 54.5962 53.3691V53.896H49.4673V52.9375H53.4219V52.8486C53.4049 52.5439 53.3415 52.2477 53.2314 51.96C53.1257 51.6722 52.9564 51.4352 52.7236 51.249C52.4909 51.0628 52.1735 50.9697 51.7715 50.9697C51.5049 50.9697 51.2594 51.0269 51.0352 51.1411C50.8109 51.2511 50.6183 51.4162 50.4575 51.6362C50.2967 51.8563 50.1719 52.125 50.083 52.4424C49.9941 52.7598 49.9497 53.1258 49.9497 53.5405V53.8071C49.9497 54.133 49.9941 54.4398 50.083 54.7275C50.1761 55.0111 50.3094 55.2607 50.4829 55.4766C50.6606 55.6924 50.8743 55.8617 51.124 55.9844C51.3779 56.1071 51.6657 56.1685 51.9873 56.1685C52.402 56.1685 52.7533 56.0838 53.041 55.9146C53.3288 55.7453 53.5806 55.5189 53.7964 55.2354L54.5073 55.8003C54.3592 56.0246 54.1709 56.2383 53.9424 56.4414C53.7139 56.6445 53.4325 56.8096 53.0981 56.9365C52.7681 57.0635 52.3766 57.127 51.9238 57.127Z" fill="#9F1EDC"/>
<path d="M36.25 12.75H33.75L33.6814 12.75C32.5614 12.75 31.6213 12.7499 30.8736 12.8504C30.0819 12.9569 29.358 13.1922 28.7751 13.7751C28.1922 14.358 27.9569 15.0819 27.8504 15.8736C27.7499 16.6213 27.75 17.5614 27.75 18.6814L27.75 18.75V31.25L27.75 31.3186C27.75 32.4386 27.7499 33.3787 27.8504 34.1264C27.9569 34.9181 28.1922 35.642 28.7751 36.2249C29.358 36.8078 30.0819 37.0431 30.8736 37.1496C31.6213 37.2501 32.5614 37.25 33.6814 37.25H33.75H36.25H36.3186C37.4386 37.25 38.3787 37.2501 39.1264 37.1496C39.9181 37.0431 40.642 36.8078 41.2249 36.2249C41.8078 35.642 42.0431 34.9181 42.1496 34.1264C42.2501 33.3787 42.25 32.4386 42.25 31.3186L42.25 31.25V18.75L42.25 18.6814C42.25 17.5614 42.2501 16.6213 42.1496 15.8736C42.0431 15.0819 41.8078 14.358 41.2249 13.7751C40.642 13.1922 39.9181 12.9569 39.1264 12.8504C38.3787 12.7499 37.4386 12.75 36.3186 12.75L36.25 12.75Z" stroke="#9F1EDC" stroke-width="2"/>
<path d="M28.75 30H41.25" stroke="#9F1EDC" stroke-width="2"/>
</svg>
