<svg width="70" height="70" viewBox="0 0 70 70" fill="none" xmlns="http://www.w3.org/2000/svg">
<rect width="70" height="70" rx="10" fill="#FFD3D3"/>
<path d="M15.6523 54.061H16.8711C16.8076 54.645 16.6405 55.1676 16.3696 55.6289C16.0988 56.0902 15.7158 56.4562 15.2207 56.7271C14.7256 56.9937 14.1077 57.127 13.3672 57.127C12.8255 57.127 12.3325 57.0254 11.8882 56.8223C11.4481 56.6191 11.0693 56.3314 10.752 55.959C10.4346 55.5824 10.1891 55.1317 10.0156 54.6069C9.84635 54.078 9.76172 53.4897 9.76172 52.8423V51.9219C9.76172 51.2744 9.84635 50.6883 10.0156 50.1636C10.1891 49.6346 10.4367 49.1818 10.7583 48.8052C11.0841 48.4285 11.4756 48.1387 11.9326 47.9355C12.3896 47.7324 12.9038 47.6309 13.4751 47.6309C14.1733 47.6309 14.7637 47.762 15.2461 48.0244C15.7285 48.2868 16.103 48.6507 16.3696 49.1162C16.6405 49.5775 16.8076 50.1128 16.8711 50.7222H15.6523C15.5931 50.2905 15.4831 49.9202 15.3223 49.6113C15.1615 49.2982 14.9329 49.057 14.6367 48.8877C14.3405 48.7184 13.9533 48.6338 13.4751 48.6338C13.0646 48.6338 12.7028 48.7121 12.3896 48.8687C12.0807 49.0252 11.8205 49.2474 11.6089 49.5352C11.4015 49.8229 11.245 50.1678 11.1392 50.5698C11.0334 50.9718 10.9805 51.4183 10.9805 51.9092V52.8423C10.9805 53.2951 11.027 53.7204 11.1201 54.1182C11.2174 54.516 11.3634 54.8651 11.5581 55.1655C11.7528 55.466 12.0003 55.703 12.3008 55.8765C12.6012 56.0457 12.9567 56.1304 13.3672 56.1304C13.8877 56.1304 14.3024 56.0479 14.6113 55.8828C14.9202 55.7178 15.153 55.4808 15.3096 55.1719C15.4704 54.863 15.5846 54.4927 15.6523 54.061ZM22.4126 55.8257V52.29C22.4126 52.0192 22.3576 51.7843 22.2476 51.5854C22.1418 51.3823 21.981 51.2257 21.7651 51.1157C21.5493 51.0057 21.2827 50.9507 20.9653 50.9507C20.6691 50.9507 20.4089 51.0015 20.1846 51.103C19.9645 51.2046 19.791 51.3379 19.6641 51.5029C19.5413 51.668 19.48 51.8457 19.48 52.0361H18.3057C18.3057 51.7907 18.3691 51.5474 18.4961 51.3062C18.623 51.0649 18.805 50.847 19.042 50.6523C19.2832 50.4535 19.571 50.2969 19.9053 50.1826C20.2438 50.0641 20.6204 50.0049 21.0352 50.0049C21.5345 50.0049 21.9746 50.0895 22.3555 50.2588C22.7406 50.4281 23.041 50.6841 23.2568 51.0269C23.4769 51.3654 23.5869 51.7907 23.5869 52.3027V55.502C23.5869 55.7305 23.606 55.9738 23.644 56.2319C23.6864 56.4901 23.7477 56.7122 23.8281 56.8984V57H22.603C22.5438 56.8646 22.4972 56.6847 22.4634 56.4604C22.4295 56.2319 22.4126 56.0203 22.4126 55.8257ZM22.6157 52.8359L22.6284 53.6611H21.4414C21.1071 53.6611 20.8088 53.6886 20.5464 53.7437C20.284 53.7944 20.064 53.8727 19.8862 53.9785C19.7085 54.0843 19.5731 54.2176 19.48 54.3784C19.3869 54.535 19.3403 54.7191 19.3403 54.9307C19.3403 55.1465 19.389 55.3433 19.4863 55.521C19.5837 55.6987 19.7297 55.8405 19.9243 55.9463C20.1232 56.0479 20.3665 56.0986 20.6543 56.0986C21.014 56.0986 21.3314 56.0225 21.6064 55.8701C21.8815 55.7178 22.0994 55.5316 22.2603 55.3115C22.4253 55.0915 22.5142 54.8778 22.5269 54.6704L23.0283 55.2354C22.9987 55.4131 22.9183 55.6099 22.7871 55.8257C22.6559 56.0415 22.4803 56.2489 22.2603 56.4478C22.0444 56.6424 21.7863 56.8053 21.4858 56.9365C21.1896 57.0635 20.8553 57.127 20.4829 57.127C20.0174 57.127 19.609 57.036 19.2578 56.854C18.9108 56.672 18.64 56.4287 18.4453 56.124C18.2549 55.8151 18.1597 55.4702 18.1597 55.0894C18.1597 54.7212 18.2316 54.3975 18.3755 54.1182C18.5194 53.8346 18.7267 53.5998 18.9976 53.4136C19.2684 53.2231 19.5942 53.0793 19.9751 52.9819C20.356 52.8846 20.7812 52.8359 21.251 52.8359H22.6157ZM25.4277 47.25H26.6084V55.667L26.5068 57H25.4277V47.25ZM31.2485 53.5088V53.6421C31.2485 54.1414 31.1893 54.6048 31.0708 55.0322C30.9523 55.4554 30.7788 55.8236 30.5503 56.1367C30.3218 56.4499 30.0425 56.6932 29.7124 56.8667C29.3823 57.0402 29.0036 57.127 28.5762 57.127C28.1403 57.127 27.7573 57.0529 27.4272 56.9048C27.1014 56.7524 26.8263 56.5345 26.6021 56.251C26.3778 55.9674 26.1979 55.6247 26.0625 55.2227C25.9313 54.8206 25.8403 54.3678 25.7896 53.8643V53.2803C25.8403 52.7725 25.9313 52.3175 26.0625 51.9155C26.1979 51.5135 26.3778 51.1707 26.6021 50.8872C26.8263 50.5994 27.1014 50.3815 27.4272 50.2334C27.7531 50.0811 28.1318 50.0049 28.5635 50.0049C28.9951 50.0049 29.3781 50.0895 29.7124 50.2588C30.0467 50.4238 30.326 50.6608 30.5503 50.9697C30.7788 51.2786 30.9523 51.6489 31.0708 52.0806C31.1893 52.508 31.2485 52.984 31.2485 53.5088ZM30.0679 53.6421V53.5088C30.0679 53.166 30.0361 52.8444 29.9727 52.5439C29.9092 52.2393 29.8076 51.9727 29.668 51.7441C29.5283 51.5114 29.3442 51.3294 29.1157 51.1982C28.8872 51.0628 28.6058 50.9951 28.2715 50.9951C27.9753 50.9951 27.7171 51.0459 27.4971 51.1475C27.2812 51.249 27.0972 51.3866 26.9448 51.5601C26.7925 51.7293 26.6676 51.924 26.5703 52.144C26.4772 52.3599 26.4074 52.5841 26.3608 52.8169V54.3467C26.4285 54.6429 26.5386 54.9285 26.6909 55.2036C26.8475 55.4744 27.0549 55.6966 27.313 55.8701C27.5754 56.0436 27.8991 56.1304 28.2842 56.1304C28.6016 56.1304 28.8724 56.0669 29.0967 55.9399C29.3252 55.8088 29.5093 55.6289 29.6489 55.4004C29.7928 55.1719 29.8986 54.9074 29.9663 54.6069C30.034 54.3065 30.0679 53.9849 30.0679 53.6421ZM34.0098 47.25V57H32.8291V47.25H34.0098ZM38.7451 57.127C38.2669 57.127 37.8332 57.0465 37.4438 56.8857C37.0588 56.7207 36.7266 56.4901 36.4473 56.1938C36.1722 55.8976 35.9606 55.5464 35.8125 55.1401C35.6644 54.7339 35.5903 54.2896 35.5903 53.8071V53.5405C35.5903 52.9819 35.6729 52.4847 35.8379 52.0488C36.0029 51.6087 36.2272 51.2363 36.5107 50.9316C36.7943 50.627 37.1159 50.3963 37.4756 50.2397C37.8353 50.0832 38.2077 50.0049 38.5928 50.0049C39.0837 50.0049 39.5068 50.0895 39.8623 50.2588C40.222 50.4281 40.5161 50.665 40.7446 50.9697C40.9731 51.2702 41.1424 51.6257 41.2524 52.0361C41.3625 52.4424 41.4175 52.8867 41.4175 53.3691V53.896H36.2886V52.9375H40.2432V52.8486C40.2262 52.5439 40.1628 52.2477 40.0527 51.96C39.9469 51.6722 39.7777 51.4352 39.5449 51.249C39.3122 51.0628 38.9948 50.9697 38.5928 50.9697C38.3262 50.9697 38.0807 51.0269 37.8564 51.1411C37.6322 51.2511 37.4396 51.4162 37.2788 51.6362C37.118 51.8563 36.9932 52.125 36.9043 52.4424C36.8154 52.7598 36.771 53.1258 36.771 53.5405V53.8071C36.771 54.133 36.8154 54.4398 36.9043 54.7275C36.9974 55.0111 37.1307 55.2607 37.3042 55.4766C37.4819 55.6924 37.6956 55.8617 37.9453 55.9844C38.1992 56.1071 38.487 56.1685 38.8086 56.1685C39.2233 56.1685 39.5745 56.0838 39.8623 55.9146C40.1501 55.7453 40.4019 55.5189 40.6177 55.2354L41.3286 55.8003C41.1805 56.0246 40.9922 56.2383 40.7637 56.4414C40.5352 56.6445 40.2537 56.8096 39.9194 56.9365C39.5894 57.0635 39.1979 57.127 38.7451 57.127ZM49.3521 47.7578V57H48.146V47.7578H49.3521ZM52.3228 47.7578V48.7607H45.1816V47.7578H52.3228ZM56.7788 55.5972L59.502 47.7578H60.8286L57.4072 57H56.4614L56.7788 55.5972ZM54.2334 47.7578L56.9312 55.5972L57.2676 57H56.3218L52.9067 47.7578H54.2334Z" fill="#F01616"/>
<path d="M28.75 16H41.25C42.4568 16 43.2613 16.0021 43.8599 16.0826C44.4298 16.1592 44.6613 16.29 44.8107 16.4393C44.96 16.5887 45.0908 16.8202 45.1674 17.3901C45.2479 17.9887 45.25 18.7932 45.25 20V30.25H24.75V20C24.75 18.7932 24.7521 17.9887 24.8326 17.3901C24.9092 16.8202 25.04 16.5887 25.1893 16.4393C25.3387 16.29 25.5702 16.1592 26.1401 16.0826C26.7387 16.0021 27.5432 16 28.75 16Z" stroke="#F01616" stroke-width="2"/>
<path d="M45.4167 30.25H24.5833C23.5708 30.25 22.75 31.0708 22.75 32.0833C22.75 33.5561 23.9439 34.75 25.4167 34.75H44.5833C46.0561 34.75 47.25 33.5561 47.25 32.0833C47.25 31.0708 46.4292 30.25 45.4167 30.25Z" stroke="#F01616" stroke-width="2"/>
</svg>
