<svg width="70" height="70" viewBox="0 0 70 70" fill="none" xmlns="http://www.w3.org/2000/svg">
<rect width="70" height="70" rx="10" fill="#FFE6C9"/>
<path d="M18.6523 54.061H19.8711C19.8076 54.645 19.6405 55.1676 19.3696 55.6289C19.0988 56.0902 18.7158 56.4562 18.2207 56.7271C17.7256 56.9937 17.1077 57.127 16.3672 57.127C15.8255 57.127 15.3325 57.0254 14.8882 56.8223C14.4481 56.6191 14.0693 56.3314 13.752 55.959C13.4346 55.5824 13.1891 55.1317 13.0156 54.6069C12.8464 54.078 12.7617 53.4897 12.7617 52.8423V51.9219C12.7617 51.2744 12.8464 50.6883 13.0156 50.1636C13.1891 49.6346 13.4367 49.1818 13.7583 48.8052C14.0841 48.4285 14.4756 48.1387 14.9326 47.9355C15.3896 47.7324 15.9038 47.6309 16.4751 47.6309C17.1733 47.6309 17.7637 47.762 18.2461 48.0244C18.7285 48.2868 19.103 48.6507 19.3696 49.1162C19.6405 49.5775 19.8076 50.1128 19.8711 50.7222H18.6523C18.5931 50.2905 18.4831 49.9202 18.3223 49.6113C18.1615 49.2982 17.9329 49.057 17.6367 48.8877C17.3405 48.7184 16.9533 48.6338 16.4751 48.6338C16.0646 48.6338 15.7028 48.7121 15.3896 48.8687C15.0807 49.0252 14.8205 49.2474 14.6089 49.5352C14.4015 49.8229 14.245 50.1678 14.1392 50.5698C14.0334 50.9718 13.9805 51.4183 13.9805 51.9092V52.8423C13.9805 53.2951 14.027 53.7204 14.1201 54.1182C14.2174 54.516 14.3634 54.8651 14.5581 55.1655C14.7528 55.466 15.0003 55.703 15.3008 55.8765C15.6012 56.0457 15.9567 56.1304 16.3672 56.1304C16.8877 56.1304 17.3024 56.0479 17.6113 55.8828C17.9202 55.7178 18.153 55.4808 18.3096 55.1719C18.4704 54.863 18.5846 54.4927 18.6523 54.061ZM21.0518 53.6421V53.4961C21.0518 53.001 21.1237 52.5418 21.2676 52.1187C21.4115 51.6912 21.6188 51.321 21.8896 51.0078C22.1605 50.6904 22.4884 50.445 22.8735 50.2715C23.2586 50.0938 23.6903 50.0049 24.1685 50.0049C24.6509 50.0049 25.0846 50.0938 25.4697 50.2715C25.859 50.445 26.1891 50.6904 26.46 51.0078C26.735 51.321 26.9445 51.6912 27.0884 52.1187C27.2323 52.5418 27.3042 53.001 27.3042 53.4961V53.6421C27.3042 54.1372 27.2323 54.5964 27.0884 55.0195C26.9445 55.4427 26.735 55.813 26.46 56.1304C26.1891 56.4435 25.8612 56.689 25.4761 56.8667C25.0952 57.0402 24.6636 57.127 24.1812 57.127C23.6987 57.127 23.265 57.0402 22.8799 56.8667C22.4948 56.689 22.1647 56.4435 21.8896 56.1304C21.6188 55.813 21.4115 55.4427 21.2676 55.0195C21.1237 54.5964 21.0518 54.1372 21.0518 53.6421ZM22.2261 53.4961V53.6421C22.2261 53.9849 22.2663 54.3086 22.3467 54.6133C22.4271 54.9137 22.5477 55.1803 22.7085 55.4131C22.8735 55.6458 23.0788 55.8299 23.3242 55.9653C23.5697 56.0965 23.8553 56.1621 24.1812 56.1621C24.5028 56.1621 24.7842 56.0965 25.0254 55.9653C25.2708 55.8299 25.474 55.6458 25.6348 55.4131C25.7956 55.1803 25.9162 54.9137 25.9966 54.6133C26.0812 54.3086 26.1235 53.9849 26.1235 53.6421V53.4961C26.1235 53.1576 26.0812 52.8381 25.9966 52.5376C25.9162 52.2329 25.7935 51.9642 25.6284 51.7314C25.4676 51.4945 25.2645 51.3083 25.019 51.1729C24.7778 51.0374 24.4943 50.9697 24.1685 50.9697C23.8468 50.9697 23.5633 51.0374 23.3179 51.1729C23.0767 51.3083 22.8735 51.4945 22.7085 51.7314C22.5477 51.9642 22.4271 52.2329 22.3467 52.5376C22.2663 52.8381 22.2261 53.1576 22.2261 53.4961ZM29.9512 51.5981V57H28.7769V50.1318H29.8877L29.9512 51.5981ZM29.6719 53.3057L29.1831 53.2866C29.1873 52.8169 29.2572 52.3831 29.3926 51.9854C29.528 51.5833 29.7184 51.2342 29.9639 50.938C30.2093 50.6418 30.5013 50.4132 30.8398 50.2524C31.1826 50.0874 31.5614 50.0049 31.9761 50.0049C32.3146 50.0049 32.6193 50.0514 32.8901 50.1445C33.161 50.2334 33.3916 50.3773 33.582 50.5762C33.7767 50.7751 33.9248 51.0332 34.0264 51.3506C34.1279 51.6637 34.1787 52.0467 34.1787 52.4995V57H32.998V52.4868C32.998 52.1271 32.9451 51.8394 32.8394 51.6235C32.7336 51.4035 32.5791 51.2448 32.376 51.1475C32.1729 51.0459 31.9232 50.9951 31.627 50.9951C31.335 50.9951 31.0684 51.0565 30.8271 51.1792C30.5902 51.3019 30.3849 51.4712 30.2114 51.687C30.0422 51.9028 29.9089 52.1504 29.8115 52.4297C29.7184 52.7048 29.6719 52.9967 29.6719 53.3057ZM38.0508 55.9399L39.9297 50.1318H41.1294L38.6602 57H37.873L38.0508 55.9399ZM36.4829 50.1318L38.4189 55.9717L38.5522 57H37.7651L35.2769 50.1318H36.4829ZM45.0205 57.127C44.5423 57.127 44.1086 57.0465 43.7192 56.8857C43.3341 56.7207 43.002 56.4901 42.7227 56.1938C42.4476 55.8976 42.236 55.5464 42.0879 55.1401C41.9398 54.7339 41.8657 54.2896 41.8657 53.8071V53.5405C41.8657 52.9819 41.9482 52.4847 42.1133 52.0488C42.2783 51.6087 42.5026 51.2363 42.7861 50.9316C43.0697 50.627 43.3913 50.3963 43.751 50.2397C44.1107 50.0832 44.4831 50.0049 44.8682 50.0049C45.359 50.0049 45.7822 50.0895 46.1377 50.2588C46.4974 50.4281 46.7915 50.665 47.02 50.9697C47.2485 51.2702 47.4178 51.6257 47.5278 52.0361C47.6379 52.4424 47.6929 52.8867 47.6929 53.3691V53.896H42.564V52.9375H46.5186V52.8486C46.5016 52.5439 46.4382 52.2477 46.3281 51.96C46.2223 51.6722 46.0531 51.4352 45.8203 51.249C45.5876 51.0628 45.2702 50.9697 44.8682 50.9697C44.6016 50.9697 44.3561 51.0269 44.1318 51.1411C43.9076 51.2511 43.715 51.4162 43.5542 51.6362C43.3934 51.8563 43.2686 52.125 43.1797 52.4424C43.0908 52.7598 43.0464 53.1258 43.0464 53.5405V53.8071C43.0464 54.133 43.0908 54.4398 43.1797 54.7275C43.2728 55.0111 43.4061 55.2607 43.5796 55.4766C43.7573 55.6924 43.971 55.8617 44.2207 55.9844C44.4746 56.1071 44.7624 56.1685 45.084 56.1685C45.4987 56.1685 45.8499 56.0838 46.1377 55.9146C46.4255 55.7453 46.6772 55.5189 46.8931 55.2354L47.604 55.8003C47.4559 56.0246 47.2676 56.2383 47.0391 56.4414C46.8105 56.6445 46.5291 56.8096 46.1948 56.9365C45.8647 57.0635 45.4733 57.127 45.0205 57.127ZM50.2383 51.2109V57H49.064V50.1318H50.2065L50.2383 51.2109ZM52.3838 50.0938L52.3774 51.1855C52.2801 51.1644 52.187 51.1517 52.0981 51.1475C52.0135 51.139 51.9162 51.1348 51.8062 51.1348C51.5353 51.1348 51.2962 51.1771 51.0889 51.2617C50.8815 51.3464 50.7059 51.4648 50.562 51.6172C50.4181 51.7695 50.3039 51.9515 50.2192 52.1631C50.1388 52.3704 50.0859 52.599 50.0605 52.8486L49.7305 53.0391C49.7305 52.6243 49.7707 52.235 49.8511 51.8711C49.9357 51.5072 50.0648 51.1855 50.2383 50.9062C50.4118 50.6227 50.6318 50.4027 50.8984 50.2461C51.1693 50.0853 51.4909 50.0049 51.8633 50.0049C51.9479 50.0049 52.0452 50.0155 52.1553 50.0366C52.2653 50.0535 52.3415 50.0726 52.3838 50.0938ZM56.6621 50.1318V51.0332H52.9487V50.1318H56.6621ZM54.2056 48.4624H55.3799V55.2988C55.3799 55.5316 55.4159 55.7072 55.4878 55.8257C55.5597 55.9442 55.6528 56.0225 55.7671 56.0605C55.8813 56.0986 56.0041 56.1177 56.1353 56.1177C56.2326 56.1177 56.3341 56.1092 56.4399 56.0923C56.55 56.0711 56.6325 56.0542 56.6875 56.0415L56.6938 57C56.6007 57.0296 56.478 57.0571 56.3257 57.0825C56.1776 57.1121 55.9977 57.127 55.7861 57.127C55.4984 57.127 55.2339 57.0698 54.9927 56.9556C54.7515 56.8413 54.5589 56.6509 54.415 56.3843C54.2754 56.1134 54.2056 55.7495 54.2056 55.2925V48.4624Z" fill="#E98918"/>
<path d="M36.25 31.25H31.25V34.5885C31.25 34.7554 31.0577 34.8489 30.9264 34.7458L22.5 28.125L30.9264 21.5042C31.0577 21.4011 31.25 21.4946 31.25 21.6615V25H38.75" stroke="#E98918" stroke-width="2"/>
<path d="M33.75 18.75H38.75V15.4115C38.75 15.2446 38.9423 15.1511 39.0736 15.2542L47.5 21.875L39.0736 28.4958C38.9423 28.5989 38.75 28.5054 38.75 28.3385V25H31.25" stroke="#E98918" stroke-width="2"/>
</svg>
