<svg width="70" height="70" viewBox="0 0 70 70" fill="none" xmlns="http://www.w3.org/2000/svg">
<rect width="70" height="70" rx="10" fill="#CBFFD0"/>
<path d="M13.9443 56.0034V57H9.05029V56.0034H13.9443ZM9.29785 47.7578V57H8.07275V47.7578H9.29785ZM13.2969 51.7314V52.728H9.05029V51.7314H13.2969ZM13.8809 47.7578V48.7607H9.05029V47.7578H13.8809ZM16.5596 47.25V57H15.3789V47.25H16.5596ZM21.2949 57.127C20.8167 57.127 20.383 57.0465 19.9937 56.8857C19.6086 56.7207 19.2764 56.4901 18.9971 56.1938C18.722 55.8976 18.5104 55.5464 18.3623 55.1401C18.2142 54.7339 18.1401 54.2896 18.1401 53.8071V53.5405C18.1401 52.9819 18.2227 52.4847 18.3877 52.0488C18.5527 51.6087 18.777 51.2363 19.0605 50.9316C19.3441 50.627 19.6657 50.3963 20.0254 50.2397C20.3851 50.0832 20.7575 50.0049 21.1426 50.0049C21.6335 50.0049 22.0566 50.0895 22.4121 50.2588C22.7718 50.4281 23.0659 50.665 23.2944 50.9697C23.5229 51.2702 23.6922 51.6257 23.8022 52.0361C23.9123 52.4424 23.9673 52.8867 23.9673 53.3691V53.896H18.8384V52.9375H22.793V52.8486C22.776 52.5439 22.7126 52.2477 22.6025 51.96C22.4967 51.6722 22.3275 51.4352 22.0947 51.249C21.862 51.0628 21.5446 50.9697 21.1426 50.9697C20.876 50.9697 20.6305 51.0269 20.4062 51.1411C20.182 51.2511 19.9894 51.4162 19.8286 51.6362C19.6678 51.8563 19.543 52.125 19.4541 52.4424C19.3652 52.7598 19.3208 53.1258 19.3208 53.5405V53.8071C19.3208 54.133 19.3652 54.4398 19.4541 54.7275C19.5472 55.0111 19.6805 55.2607 19.854 55.4766C20.0317 55.6924 20.2454 55.8617 20.4951 55.9844C20.749 56.1071 21.0368 56.1685 21.3584 56.1685C21.7731 56.1685 22.1243 56.0838 22.4121 55.9146C22.6999 55.7453 22.9517 55.5189 23.1675 55.2354L23.8784 55.8003C23.7303 56.0246 23.542 56.2383 23.3135 56.4414C23.085 56.6445 22.8035 56.8096 22.4692 56.9365C22.1392 57.0635 21.7477 57.127 21.2949 57.127ZM28.0869 56.1621C28.3662 56.1621 28.6243 56.105 28.8613 55.9907C29.0983 55.8765 29.293 55.7199 29.4453 55.521C29.5977 55.3179 29.6844 55.0872 29.7056 54.8291H30.8228C30.8016 55.2354 30.6641 55.6141 30.4102 55.9653C30.1605 56.3123 29.8325 56.5938 29.4263 56.8096C29.02 57.0212 28.5736 57.127 28.0869 57.127C27.5706 57.127 27.12 57.036 26.7349 56.854C26.354 56.672 26.0366 56.4224 25.7827 56.105C25.533 55.7876 25.3447 55.4237 25.2178 55.0132C25.0951 54.5985 25.0337 54.1605 25.0337 53.6992V53.4326C25.0337 52.9714 25.0951 52.5355 25.2178 52.125C25.3447 51.7103 25.533 51.3442 25.7827 51.0269C26.0366 50.7095 26.354 50.4598 26.7349 50.2778C27.12 50.0959 27.5706 50.0049 28.0869 50.0049C28.6243 50.0049 29.0941 50.1149 29.4961 50.335C29.8981 50.5508 30.2134 50.847 30.4419 51.2236C30.6746 51.596 30.8016 52.0192 30.8228 52.4932H29.7056C29.6844 52.2096 29.604 51.9536 29.4644 51.7251C29.3289 51.4966 29.1427 51.3146 28.9058 51.1792C28.673 51.0396 28.4001 50.9697 28.0869 50.9697C27.7272 50.9697 27.4246 51.0417 27.1792 51.1855C26.938 51.3252 26.7454 51.5156 26.6016 51.7568C26.4619 51.9938 26.3604 52.2583 26.2969 52.5503C26.2376 52.8381 26.208 53.1322 26.208 53.4326V53.6992C26.208 53.9997 26.2376 54.2959 26.2969 54.5879C26.3561 54.8799 26.4556 55.1444 26.5952 55.3813C26.7391 55.6183 26.9316 55.8088 27.1729 55.9526C27.4183 56.0923 27.723 56.1621 28.0869 56.1621ZM35.0186 50.1318V51.0332H31.3052V50.1318H35.0186ZM32.562 48.4624H33.7363V55.2988C33.7363 55.5316 33.7723 55.7072 33.8442 55.8257C33.9162 55.9442 34.0093 56.0225 34.1235 56.0605C34.2378 56.0986 34.3605 56.1177 34.4917 56.1177C34.589 56.1177 34.6906 56.1092 34.7964 56.0923C34.9064 56.0711 34.9889 56.0542 35.0439 56.0415L35.0503 57C34.9572 57.0296 34.8345 57.0571 34.6821 57.0825C34.534 57.1121 34.3542 57.127 34.1426 57.127C33.8548 57.127 33.5903 57.0698 33.3491 56.9556C33.1079 56.8413 32.9154 56.6509 32.7715 56.3843C32.6318 56.1134 32.562 55.7495 32.562 55.2925V48.4624ZM37.5703 51.2109V57H36.396V50.1318H37.5386L37.5703 51.2109ZM39.7158 50.0938L39.7095 51.1855C39.6121 51.1644 39.519 51.1517 39.4302 51.1475C39.3455 51.139 39.2482 51.1348 39.1382 51.1348C38.8674 51.1348 38.6283 51.1771 38.4209 51.2617C38.2135 51.3464 38.0379 51.4648 37.894 51.6172C37.7502 51.7695 37.6359 51.9515 37.5513 52.1631C37.4709 52.3704 37.418 52.599 37.3926 52.8486L37.0625 53.0391C37.0625 52.6243 37.1027 52.235 37.1831 51.8711C37.2677 51.5072 37.3968 51.1855 37.5703 50.9062C37.7438 50.6227 37.9639 50.4027 38.2305 50.2461C38.5013 50.0853 38.8229 50.0049 39.1953 50.0049C39.2799 50.0049 39.3773 50.0155 39.4873 50.0366C39.5973 50.0535 39.6735 50.0726 39.7158 50.0938ZM42.0771 50.1318V57H40.8965V50.1318H42.0771ZM40.8076 48.3101C40.8076 48.1196 40.8647 47.9588 40.979 47.8276C41.0975 47.6965 41.271 47.6309 41.4995 47.6309C41.7238 47.6309 41.8952 47.6965 42.0137 47.8276C42.1364 47.9588 42.1978 48.1196 42.1978 48.3101C42.1978 48.492 42.1364 48.6486 42.0137 48.7798C41.8952 48.9067 41.7238 48.9702 41.4995 48.9702C41.271 48.9702 41.0975 48.9067 40.979 48.7798C40.8647 48.6486 40.8076 48.492 40.8076 48.3101ZM46.7109 56.1621C46.9902 56.1621 47.2484 56.105 47.4854 55.9907C47.7223 55.8765 47.917 55.7199 48.0693 55.521C48.2217 55.3179 48.3084 55.0872 48.3296 54.8291H49.4468C49.4256 55.2354 49.2881 55.6141 49.0342 55.9653C48.7845 56.3123 48.4565 56.5938 48.0503 56.8096C47.644 57.0212 47.1976 57.127 46.7109 57.127C46.1947 57.127 45.744 57.036 45.3589 56.854C44.978 56.672 44.6606 56.4224 44.4067 56.105C44.1571 55.7876 43.9688 55.4237 43.8418 55.0132C43.7191 54.5985 43.6577 54.1605 43.6577 53.6992V53.4326C43.6577 52.9714 43.7191 52.5355 43.8418 52.125C43.9688 51.7103 44.1571 51.3442 44.4067 51.0269C44.6606 50.7095 44.978 50.4598 45.3589 50.2778C45.744 50.0959 46.1947 50.0049 46.7109 50.0049C47.2484 50.0049 47.7181 50.1149 48.1201 50.335C48.5221 50.5508 48.8374 50.847 49.0659 51.2236C49.2987 51.596 49.4256 52.0192 49.4468 52.4932H48.3296C48.3084 52.2096 48.228 51.9536 48.0884 51.7251C47.953 51.4966 47.7668 51.3146 47.5298 51.1792C47.297 51.0396 47.0241 50.9697 46.7109 50.9697C46.3512 50.9697 46.0487 51.0417 45.8032 51.1855C45.562 51.3252 45.3695 51.5156 45.2256 51.7568C45.0859 51.9938 44.9844 52.2583 44.9209 52.5503C44.8617 52.8381 44.832 53.1322 44.832 53.4326V53.6992C44.832 53.9997 44.8617 54.2959 44.9209 54.5879C44.9801 54.8799 45.0796 55.1444 45.2192 55.3813C45.3631 55.6183 45.5557 55.8088 45.7969 55.9526C46.0423 56.0923 46.347 56.1621 46.7109 56.1621ZM52.043 50.1318V57H50.8623V50.1318H52.043ZM50.7734 48.3101C50.7734 48.1196 50.8306 47.9588 50.9448 47.8276C51.0633 47.6965 51.2368 47.6309 51.4653 47.6309C51.6896 47.6309 51.861 47.6965 51.9795 47.8276C52.1022 47.9588 52.1636 48.1196 52.1636 48.3101C52.1636 48.492 52.1022 48.6486 51.9795 48.7798C51.861 48.9067 51.6896 48.9702 51.4653 48.9702C51.2368 48.9702 51.0633 48.9067 50.9448 48.7798C50.8306 48.6486 50.7734 48.492 50.7734 48.3101ZM56.8037 50.1318V51.0332H53.0903V50.1318H56.8037ZM54.3472 48.4624H55.5215V55.2988C55.5215 55.5316 55.5575 55.7072 55.6294 55.8257C55.7013 55.9442 55.7944 56.0225 55.9087 56.0605C56.0229 56.0986 56.1457 56.1177 56.2769 56.1177C56.3742 56.1177 56.4757 56.1092 56.5815 56.0923C56.6916 56.0711 56.7741 56.0542 56.8291 56.0415L56.8354 57C56.7424 57.0296 56.6196 57.0571 56.4673 57.0825C56.3192 57.1121 56.1393 57.127 55.9277 57.127C55.64 57.127 55.3755 57.0698 55.1343 56.9556C54.8931 56.8413 54.7005 56.6509 54.5566 56.3843C54.417 56.1134 54.3472 55.7495 54.3472 55.2925V48.4624ZM60.1108 56.2891L62.0215 50.1318H63.2783L60.5234 58.0601C60.46 58.2293 60.3753 58.4113 60.2695 58.606C60.168 58.8049 60.0368 58.9932 59.876 59.1709C59.7152 59.3486 59.5205 59.4925 59.292 59.6025C59.0677 59.7168 58.799 59.7739 58.4858 59.7739C58.3927 59.7739 58.2743 59.7612 58.1304 59.7358C57.9865 59.7104 57.8849 59.6893 57.8257 59.6724L57.8193 58.7202C57.8532 58.7244 57.9061 58.7287 57.978 58.7329C58.0542 58.7414 58.1071 58.7456 58.1367 58.7456C58.4033 58.7456 58.6297 58.7096 58.8159 58.6377C59.0021 58.57 59.1587 58.4536 59.2856 58.2886C59.4168 58.1278 59.529 57.9056 59.6221 57.6221L60.1108 56.2891ZM58.708 50.1318L60.4917 55.4639L60.7964 56.7017L59.9521 57.1333L57.4258 50.1318H58.708Z" fill="#0AC01C"/>
<path d="M34 28.25H31.8799C31.8566 28.25 31.8333 28.25 31.8102 28.25C31.1662 28.2501 30.5749 28.2502 30.1118 28.1815C29.6151 28.1078 29.0091 27.9208 28.6296 27.3269M34 28.25L28.6296 27.3269M34 28.25V33.9799L34 34.033C33.9999 34.4321 33.9999 34.8117 34.0303 35.0942C34.0456 35.2369 34.0769 35.4507 34.1698 35.6586C34.2728 35.889 34.5127 36.2325 34.9811 36.3357C35.4495 36.4388 35.8116 36.2279 36.0018 36.0621C36.1735 35.9125 36.2917 35.7316 36.3656 35.6086C36.5118 35.365 36.6713 35.0205 36.8389 34.6583L36.8612 34.6101L40.8425 26.0104C40.8523 25.9892 40.8621 25.9682 40.8718 25.9471C41.1424 25.3628 41.3909 24.8262 41.5232 24.3771C41.665 23.8954 41.7499 23.267 41.3704 22.6731C40.9909 22.0792 40.3849 21.8922 39.8882 21.8185C39.4251 21.7498 38.8338 21.7499 38.1898 21.75C38.1667 21.75 38.1434 21.75 38.1201 21.75H36V16.0201C36 16.0024 36 15.9847 36 15.967C36.0001 15.5679 36.0001 15.1883 35.9697 14.9058C35.9544 14.7631 35.9231 14.5493 35.8302 14.3414C35.7272 14.111 35.4873 13.7675 35.0189 13.6643C34.5505 13.5612 34.1884 13.7721 33.9982 13.9379C33.8265 14.0875 33.7083 14.2684 33.6344 14.3914C33.4882 14.635 33.3287 14.9795 33.1611 15.3417C33.1537 15.3578 33.1463 15.3738 33.1388 15.3899L29.1575 23.9896C29.1477 24.0108 29.1379 24.0318 29.1282 24.0529C28.8576 24.6372 28.6091 25.1738 28.4768 25.6229C28.335 26.1046 28.2501 26.733 28.6296 27.3269M34 28.25L28.6296 27.3269M35.3753 15.3803C35.3753 15.3803 35.3747 15.3812 35.3735 15.3827C35.3747 15.381 35.3753 15.3803 35.3753 15.3803ZM33.9745 15.0718C33.9745 15.0717 33.9747 15.0727 33.9751 15.0747C33.9747 15.0728 33.9745 15.0718 33.9745 15.0718ZM34.6247 34.6197C34.6247 34.6197 34.6253 34.6188 34.6266 34.6171C34.6253 34.6189 34.6247 34.6197 34.6247 34.6197ZM36.0255 34.9282C36.0255 34.9282 36.0253 34.9273 36.0249 34.9253C36.0254 34.9272 36.0255 34.9283 36.0255 34.9282Z" stroke="#0AC01C" stroke-width="2"/>
</svg>
