<svg width="70" height="70" viewBox="0 0 70 70" fill="none" xmlns="http://www.w3.org/2000/svg">
<rect width="70" height="70" rx="10" fill="#BDFFF3"/>
<path d="M15.3867 47.7578V57H14.1616V47.7578H15.3867ZM18.6113 51.5981V57H17.437V50.1318H18.5479L18.6113 51.5981ZM18.332 53.3057L17.8433 53.2866C17.8475 52.8169 17.9173 52.3831 18.0527 51.9854C18.1882 51.5833 18.3786 51.2342 18.624 50.938C18.8695 50.6418 19.1615 50.4132 19.5 50.2524C19.8428 50.0874 20.2215 50.0049 20.6362 50.0049C20.9748 50.0049 21.2795 50.0514 21.5503 50.1445C21.8211 50.2334 22.0518 50.3773 22.2422 50.5762C22.4368 50.7751 22.585 51.0332 22.6865 51.3506C22.7881 51.6637 22.8389 52.0467 22.8389 52.4995V57H21.6582V52.4868C21.6582 52.1271 21.6053 51.8394 21.4995 51.6235C21.3937 51.4035 21.2393 51.2448 21.0361 51.1475C20.833 51.0459 20.5833 50.9951 20.2871 50.9951C19.9951 50.9951 19.7285 51.0565 19.4873 51.1792C19.2503 51.3019 19.0451 51.4712 18.8716 51.687C18.7023 51.9028 18.569 52.1504 18.4717 52.4297C18.3786 52.7048 18.332 52.9967 18.332 53.3057ZM27.498 50.1318V51.0332H23.7847V50.1318H27.498ZM25.0415 48.4624H26.2158V55.2988C26.2158 55.5316 26.2518 55.7072 26.3237 55.8257C26.3957 55.9442 26.4888 56.0225 26.603 56.0605C26.7173 56.0986 26.84 56.1177 26.9712 56.1177C27.0685 56.1177 27.1701 56.1092 27.2759 56.0923C27.3859 56.0711 27.4684 56.0542 27.5234 56.0415L27.5298 57C27.4367 57.0296 27.314 57.0571 27.1616 57.0825C27.0135 57.1121 26.8337 57.127 26.6221 57.127C26.3343 57.127 26.0698 57.0698 25.8286 56.9556C25.5874 56.8413 25.3949 56.6509 25.251 56.3843C25.1113 56.1134 25.0415 55.7495 25.0415 55.2925V48.4624ZM31.7256 57.127C31.2474 57.127 30.8136 57.0465 30.4243 56.8857C30.0392 56.7207 29.707 56.4901 29.4277 56.1938C29.1527 55.8976 28.9411 55.5464 28.793 55.1401C28.6449 54.7339 28.5708 54.2896 28.5708 53.8071V53.5405C28.5708 52.9819 28.6533 52.4847 28.8184 52.0488C28.9834 51.6087 29.2077 51.2363 29.4912 50.9316C29.7747 50.627 30.0964 50.3963 30.4561 50.2397C30.8158 50.0832 31.1882 50.0049 31.5732 50.0049C32.0641 50.0049 32.4873 50.0895 32.8428 50.2588C33.2025 50.4281 33.4966 50.665 33.7251 50.9697C33.9536 51.2702 34.1229 51.6257 34.2329 52.0361C34.3429 52.4424 34.3979 52.8867 34.3979 53.3691V53.896H29.269V52.9375H33.2236V52.8486C33.2067 52.5439 33.1432 52.2477 33.0332 51.96C32.9274 51.6722 32.7581 51.4352 32.5254 51.249C32.2926 51.0628 31.9753 50.9697 31.5732 50.9697C31.3066 50.9697 31.0612 51.0269 30.8369 51.1411C30.6126 51.2511 30.4201 51.4162 30.2593 51.6362C30.0985 51.8563 29.9736 52.125 29.8848 52.4424C29.7959 52.7598 29.7515 53.1258 29.7515 53.5405V53.8071C29.7515 54.133 29.7959 54.4398 29.8848 54.7275C29.9779 55.0111 30.1112 55.2607 30.2847 55.4766C30.4624 55.6924 30.6761 55.8617 30.9258 55.9844C31.1797 56.1071 31.4674 56.1685 31.7891 56.1685C32.2038 56.1685 32.555 56.0838 32.8428 55.9146C33.1305 55.7453 33.3823 55.5189 33.5981 55.2354L34.3091 55.8003C34.161 56.0246 33.9727 56.2383 33.7441 56.4414C33.5156 56.6445 33.2342 56.8096 32.8999 56.9365C32.5698 57.0635 32.1784 57.127 31.7256 57.127ZM36.9434 51.2109V57H35.769V50.1318H36.9116L36.9434 51.2109ZM39.0889 50.0938L39.0825 51.1855C38.9852 51.1644 38.8921 51.1517 38.8032 51.1475C38.7186 51.139 38.6213 51.1348 38.5112 51.1348C38.2404 51.1348 38.0013 51.1771 37.7939 51.2617C37.5866 51.3464 37.411 51.4648 37.2671 51.6172C37.1232 51.7695 37.009 51.9515 36.9243 52.1631C36.8439 52.3704 36.791 52.599 36.7656 52.8486L36.4355 53.0391C36.4355 52.6243 36.4757 52.235 36.5562 51.8711C36.6408 51.5072 36.7699 51.1855 36.9434 50.9062C37.1169 50.6227 37.3369 50.4027 37.6035 50.2461C37.8743 50.0853 38.196 50.0049 38.5684 50.0049C38.653 50.0049 38.7503 50.0155 38.8604 50.0366C38.9704 50.0535 39.0465 50.0726 39.0889 50.0938ZM41.3486 51.5981V57H40.1743V50.1318H41.2852L41.3486 51.5981ZM41.0693 53.3057L40.5806 53.2866C40.5848 52.8169 40.6546 52.3831 40.79 51.9854C40.9255 51.5833 41.1159 51.2342 41.3613 50.938C41.6068 50.6418 41.8988 50.4132 42.2373 50.2524C42.5801 50.0874 42.9588 50.0049 43.3735 50.0049C43.7121 50.0049 44.0168 50.0514 44.2876 50.1445C44.5584 50.2334 44.7891 50.3773 44.9795 50.5762C45.1742 50.7751 45.3223 51.0332 45.4238 51.3506C45.5254 51.6637 45.5762 52.0467 45.5762 52.4995V57H44.3955V52.4868C44.3955 52.1271 44.3426 51.8394 44.2368 51.6235C44.131 51.4035 43.9766 51.2448 43.7734 51.1475C43.5703 51.0459 43.3206 50.9951 43.0244 50.9951C42.7324 50.9951 42.4658 51.0565 42.2246 51.1792C41.9876 51.3019 41.7824 51.4712 41.6089 51.687C41.4396 51.9028 41.3063 52.1504 41.209 52.4297C41.1159 52.7048 41.0693 52.9967 41.0693 53.3057ZM50.21 57.127C49.7318 57.127 49.298 57.0465 48.9087 56.8857C48.5236 56.7207 48.1914 56.4901 47.9121 56.1938C47.637 55.8976 47.4255 55.5464 47.2773 55.1401C47.1292 54.7339 47.0552 54.2896 47.0552 53.8071V53.5405C47.0552 52.9819 47.1377 52.4847 47.3027 52.0488C47.4678 51.6087 47.6921 51.2363 47.9756 50.9316C48.2591 50.627 48.5807 50.3963 48.9404 50.2397C49.3001 50.0832 49.6725 50.0049 50.0576 50.0049C50.5485 50.0049 50.9717 50.0895 51.3271 50.2588C51.6868 50.4281 51.981 50.665 52.2095 50.9697C52.438 51.2702 52.6073 51.6257 52.7173 52.0361C52.8273 52.4424 52.8823 52.8867 52.8823 53.3691V53.896H47.7534V52.9375H51.708V52.8486C51.6911 52.5439 51.6276 52.2477 51.5176 51.96C51.4118 51.6722 51.2425 51.4352 51.0098 51.249C50.777 51.0628 50.4596 50.9697 50.0576 50.9697C49.791 50.9697 49.5456 51.0269 49.3213 51.1411C49.097 51.2511 48.9045 51.4162 48.7437 51.6362C48.5828 51.8563 48.458 52.125 48.3691 52.4424C48.2803 52.7598 48.2358 53.1258 48.2358 53.5405V53.8071C48.2358 54.133 48.2803 54.4398 48.3691 54.7275C48.4622 55.0111 48.5955 55.2607 48.769 55.4766C48.9468 55.6924 49.1605 55.8617 49.4102 55.9844C49.6641 56.1071 49.9518 56.1685 50.2734 56.1685C50.6882 56.1685 51.0394 56.0838 51.3271 55.9146C51.6149 55.7453 51.8667 55.5189 52.0825 55.2354L52.7935 55.8003C52.6453 56.0246 52.457 56.2383 52.2285 56.4414C52 56.6445 51.7186 56.8096 51.3843 56.9365C51.0542 57.0635 50.6628 57.127 50.21 57.127ZM57.1289 50.1318V51.0332H53.4155V50.1318H57.1289ZM54.6724 48.4624H55.8467V55.2988C55.8467 55.5316 55.8826 55.7072 55.9546 55.8257C56.0265 55.9442 56.1196 56.0225 56.2339 56.0605C56.3481 56.0986 56.4709 56.1177 56.6021 56.1177C56.6994 56.1177 56.8009 56.1092 56.9067 56.0923C57.0168 56.0711 57.0993 56.0542 57.1543 56.0415L57.1606 57C57.0675 57.0296 56.9448 57.0571 56.7925 57.0825C56.6444 57.1121 56.4645 57.127 56.2529 57.127C55.9652 57.127 55.7007 57.0698 55.4595 56.9556C55.2183 56.8413 55.0257 56.6509 54.8818 56.3843C54.7422 56.1134 54.6724 55.7495 54.6724 55.2925V48.4624Z" fill="#1BCBAB"/>
<circle cx="34.5" cy="32.5" r="2.5" fill="#1BCBAB"/>
<path d="M45.625 16.597C42.3946 14.7319 38.7302 13.75 35 13.75C31.2698 13.75 27.6054 14.7319 24.375 16.597" stroke="#1BCBAB" stroke-width="2" stroke-linecap="round"/>
<path d="M42.5 22.0096C40.2197 20.6931 37.6331 20 35 20C32.367 20 29.7803 20.6931 27.5 22.0096" stroke="#1BCBAB" stroke-width="2" stroke-linecap="round"/>
<path d="M40 27.5897C38.4798 26.7121 36.7554 26.25 35 26.25C33.2446 26.25 31.5202 26.7121 30 27.5897" stroke="#1BCBAB" stroke-width="2" stroke-linecap="round"/>
</svg>
