<svg width="98" height="17" viewBox="0 0 98 17" fill="none" xmlns="http://www.w3.org/2000/svg">
<path d="M8.38 16L3.66 9.8V16H0.24V1.96H3.66V8.12L8.34 1.96H12.36L6.92 8.84L12.56 16H8.38ZM22.9253 13.52H17.6853L16.8453 16H13.2653L18.3453 1.96H22.3053L27.3853 16H23.7653L22.9253 13.52ZM22.0453 10.88L20.3053 5.74L18.5853 10.88H22.0453ZM34.0114 16.14C32.9847 16.14 32.0647 15.9733 31.2514 15.64C30.4381 15.3067 29.7847 14.8133 29.2914 14.16C28.8114 13.5067 28.5581 12.72 28.5314 11.8H32.1714C32.2247 12.32 32.4047 12.72 32.7114 13C33.0181 13.2667 33.4181 13.4 33.9114 13.4C34.4181 13.4 34.8181 13.2867 35.1114 13.06C35.4047 12.82 35.5514 12.4933 35.5514 12.08C35.5514 11.7333 35.4314 11.4467 35.1914 11.22C34.9647 10.9933 34.6781 10.8067 34.3314 10.66C33.9981 10.5133 33.5181 10.3467 32.8914 10.16C31.9847 9.88 31.2447 9.6 30.6714 9.32C30.0981 9.04 29.6047 8.62667 29.1914 8.08C28.7781 7.53333 28.5714 6.82 28.5714 5.94C28.5714 4.63333 29.0447 3.61333 29.9914 2.88C30.9381 2.13333 32.1714 1.76 33.6914 1.76C35.2381 1.76 36.4847 2.13333 37.4314 2.88C38.3781 3.61333 38.8847 4.64 38.9514 5.96H35.2514C35.2247 5.50667 35.0581 5.15333 34.7514 4.9C34.4447 4.63333 34.0514 4.5 33.5714 4.5C33.1581 4.5 32.8247 4.61333 32.5714 4.84C32.3181 5.05333 32.1914 5.36667 32.1914 5.78C32.1914 6.23333 32.4047 6.58667 32.8314 6.84C33.2581 7.09333 33.9247 7.36667 34.8314 7.66C35.7381 7.96667 36.4714 8.26 37.0314 8.54C37.6047 8.82 38.0981 9.22667 38.5114 9.76C38.9247 10.2933 39.1314 10.98 39.1314 11.82C39.1314 12.62 38.9247 13.3467 38.5114 14C38.1114 14.6533 37.5247 15.1733 36.7514 15.56C35.9781 15.9467 35.0647 16.14 34.0114 16.14ZM53.3961 1.96V16H49.9761V10.22H44.6561V16H41.2361V1.96H44.6561V7.46H49.9761V1.96H53.3961ZM61.465 7.68H59.625V16H56.205V7.68H54.965V4.84H56.205V4.52C56.205 3.14667 56.5983 2.10667 57.385 1.4C58.1717 0.679999 59.325 0.319999 60.845 0.319999C61.0983 0.319999 61.285 0.326666 61.405 0.339999V3.24C60.7517 3.2 60.2917 3.29333 60.025 3.52C59.7583 3.74667 59.625 4.15333 59.625 4.74V4.84H61.465V7.68ZM66.492 1.2V16H63.072V1.2H66.492ZM74.0505 16.16C72.9571 16.16 71.9705 15.9267 71.0905 15.46C70.2238 14.9933 69.5371 14.3267 69.0305 13.46C68.5371 12.5933 68.2905 11.58 68.2905 10.42C68.2905 9.27333 68.5438 8.26667 69.0505 7.4C69.5571 6.52 70.2505 5.84667 71.1305 5.38C72.0105 4.91333 72.9971 4.68 74.0905 4.68C75.1838 4.68 76.1705 4.91333 77.0505 5.38C77.9305 5.84667 78.6238 6.52 79.1305 7.4C79.6371 8.26667 79.8905 9.27333 79.8905 10.42C79.8905 11.5667 79.6305 12.58 79.1105 13.46C78.6038 14.3267 77.9038 14.9933 77.0105 15.46C76.1305 15.9267 75.1438 16.16 74.0505 16.16ZM74.0505 13.2C74.7038 13.2 75.2571 12.96 75.7105 12.48C76.1771 12 76.4105 11.3133 76.4105 10.42C76.4105 9.52667 76.1838 8.84 75.7305 8.36C75.2905 7.88 74.7438 7.64 74.0905 7.64C73.4238 7.64 72.8705 7.88 72.4305 8.36C71.9905 8.82667 71.7705 9.51333 71.7705 10.42C71.7705 11.3133 71.9838 12 72.4105 12.48C72.8505 12.96 73.3971 13.2 74.0505 13.2ZM97.7248 4.84L94.7048 16H90.9248L89.1648 8.76L87.3448 16H83.5848L80.5448 4.84H83.9648L85.5448 12.82L87.4248 4.84H91.0448L92.9448 12.78L94.5048 4.84H97.7248Z" fill="url(#paint0_angular_1_117)"/>
<defs>
<radialGradient id="paint0_angular_1_117" cx="0" cy="0" r="1" gradientUnits="userSpaceOnUse" gradientTransform="translate(48.5 9) rotate(90) scale(15 49.5)">
<stop stop-color="#B44BE5"/>
<stop offset="1" stop-color="#0133B6" stop-opacity="0.5"/>
</radialGradient>
</defs>
</svg>
