<svg width="70" height="70" viewBox="0 0 70 70" fill="none" xmlns="http://www.w3.org/2000/svg">
<rect width="70" height="70" rx="10" fill="#D1DEFF"/>
<path d="M14.4878 47.7578V57H13.2817V47.7578H14.4878ZM17.4585 47.7578V48.7607H10.3174V47.7578H17.4585ZM19.3438 51.2109V57H18.1694V50.1318H19.312L19.3438 51.2109ZM21.4893 50.0938L21.4829 51.1855C21.3856 51.1644 21.2925 51.1517 21.2036 51.1475C21.119 51.139 21.0216 51.1348 20.9116 51.1348C20.6408 51.1348 20.4017 51.1771 20.1943 51.2617C19.987 51.3464 19.8114 51.4648 19.6675 51.6172C19.5236 51.7695 19.4093 51.9515 19.3247 52.1631C19.2443 52.3704 19.1914 52.599 19.166 52.8486L18.8359 53.0391C18.8359 52.6243 18.8761 52.235 18.9565 51.8711C19.0412 51.5072 19.1702 51.1855 19.3438 50.9062C19.5173 50.6227 19.7373 50.4027 20.0039 50.2461C20.2747 50.0853 20.5964 50.0049 20.9688 50.0049C21.0534 50.0049 21.1507 50.0155 21.2607 50.0366C21.3708 50.0535 21.4469 50.0726 21.4893 50.0938ZM26.3706 55.8257V52.29C26.3706 52.0192 26.3156 51.7843 26.2056 51.5854C26.0998 51.3823 25.939 51.2257 25.7231 51.1157C25.5073 51.0057 25.2407 50.9507 24.9233 50.9507C24.6271 50.9507 24.3669 51.0015 24.1426 51.103C23.9225 51.2046 23.749 51.3379 23.6221 51.5029C23.4993 51.668 23.438 51.8457 23.438 52.0361H22.2637C22.2637 51.7907 22.3271 51.5474 22.4541 51.3062C22.5811 51.0649 22.763 50.847 23 50.6523C23.2412 50.4535 23.529 50.2969 23.8633 50.1826C24.2018 50.0641 24.5785 50.0049 24.9932 50.0049C25.4925 50.0049 25.9326 50.0895 26.3135 50.2588C26.6986 50.4281 26.999 50.6841 27.2148 51.0269C27.4349 51.3654 27.5449 51.7907 27.5449 52.3027V55.502C27.5449 55.7305 27.564 55.9738 27.6021 56.2319C27.6444 56.4901 27.7057 56.7122 27.7861 56.8984V57H26.561C26.5018 56.8646 26.4552 56.6847 26.4214 56.4604C26.3875 56.2319 26.3706 56.0203 26.3706 55.8257ZM26.5737 52.8359L26.5864 53.6611H25.3994C25.0651 53.6611 24.7668 53.6886 24.5044 53.7437C24.242 53.7944 24.022 53.8727 23.8442 53.9785C23.6665 54.0843 23.5311 54.2176 23.438 54.3784C23.3449 54.535 23.2983 54.7191 23.2983 54.9307C23.2983 55.1465 23.347 55.3433 23.4443 55.521C23.5417 55.6987 23.6877 55.8405 23.8823 55.9463C24.0812 56.0479 24.3245 56.0986 24.6123 56.0986C24.972 56.0986 25.2894 56.0225 25.5645 55.8701C25.8395 55.7178 26.0575 55.5316 26.2183 55.3115C26.3833 55.0915 26.4722 54.8778 26.4849 54.6704L26.9863 55.2354C26.9567 55.4131 26.8763 55.6099 26.7451 55.8257C26.6139 56.0415 26.4383 56.2489 26.2183 56.4478C26.0024 56.6424 25.7443 56.8053 25.4438 56.9365C25.1476 57.0635 24.8133 57.127 24.4409 57.127C23.9754 57.127 23.5671 57.036 23.2158 56.854C22.8688 56.672 22.598 56.4287 22.4033 56.124C22.2129 55.8151 22.1177 55.4702 22.1177 55.0894C22.1177 54.7212 22.1896 54.3975 22.3335 54.1182C22.4774 53.8346 22.6847 53.5998 22.9556 53.4136C23.2264 53.2231 23.5522 53.0793 23.9331 52.9819C24.314 52.8846 24.7393 52.8359 25.209 52.8359H26.5737ZM30.5664 51.5981V57H29.3921V50.1318H30.5029L30.5664 51.5981ZM30.2871 53.3057L29.7983 53.2866C29.8026 52.8169 29.8724 52.3831 30.0078 51.9854C30.1432 51.5833 30.3337 51.2342 30.5791 50.938C30.8245 50.6418 31.1165 50.4132 31.4551 50.2524C31.7979 50.0874 32.1766 50.0049 32.5913 50.0049C32.9299 50.0049 33.2345 50.0514 33.5054 50.1445C33.7762 50.2334 34.0068 50.3773 34.1973 50.5762C34.3919 50.7751 34.54 51.0332 34.6416 51.3506C34.7432 51.6637 34.7939 52.0467 34.7939 52.4995V57H33.6133V52.4868C33.6133 52.1271 33.5604 51.8394 33.4546 51.6235C33.3488 51.4035 33.1943 51.2448 32.9912 51.1475C32.7881 51.0459 32.5384 50.9951 32.2422 50.9951C31.9502 50.9951 31.6836 51.0565 31.4424 51.1792C31.2054 51.3019 31.0002 51.4712 30.8267 51.687C30.6574 51.9028 30.5241 52.1504 30.4268 52.4297C30.3337 52.7048 30.2871 52.9967 30.2871 53.3057ZM40.5767 55.1782C40.5767 55.009 40.5386 54.8524 40.4624 54.7085C40.3905 54.5604 40.2402 54.4271 40.0117 54.3086C39.7874 54.1859 39.4489 54.0801 38.9961 53.9912C38.6152 53.9108 38.2703 53.8156 37.9614 53.7056C37.6567 53.5955 37.3965 53.4622 37.1807 53.3057C36.9691 53.1491 36.8062 52.965 36.6919 52.7534C36.5776 52.5418 36.5205 52.2943 36.5205 52.0107C36.5205 51.7399 36.5798 51.4839 36.6982 51.2427C36.821 51.0015 36.9924 50.7878 37.2124 50.6016C37.4367 50.4154 37.7054 50.2694 38.0186 50.1636C38.3317 50.0578 38.6808 50.0049 39.0659 50.0049C39.616 50.0049 40.0858 50.1022 40.4751 50.2969C40.8644 50.4915 41.1628 50.7518 41.3701 51.0776C41.5775 51.3993 41.6812 51.7568 41.6812 52.1504H40.5068C40.5068 51.96 40.4497 51.7759 40.3354 51.5981C40.2254 51.4162 40.0625 51.266 39.8467 51.1475C39.6351 51.029 39.3748 50.9697 39.0659 50.9697C38.7401 50.9697 38.4756 51.0205 38.2725 51.1221C38.0736 51.2194 37.9276 51.3442 37.8345 51.4966C37.7456 51.6489 37.7012 51.8097 37.7012 51.979C37.7012 52.106 37.7223 52.2202 37.7646 52.3218C37.8112 52.4191 37.8916 52.5101 38.0059 52.5947C38.1201 52.6751 38.2809 52.7513 38.4883 52.8232C38.6956 52.8952 38.9601 52.9671 39.2817 53.0391C39.8446 53.166 40.3079 53.3184 40.6719 53.4961C41.0358 53.6738 41.3066 53.8918 41.4844 54.1499C41.6621 54.408 41.751 54.7212 41.751 55.0894C41.751 55.3898 41.6875 55.6649 41.5605 55.9146C41.4378 56.1642 41.258 56.38 41.021 56.562C40.7882 56.7397 40.509 56.8794 40.1831 56.981C39.8615 57.0783 39.4997 57.127 39.0977 57.127C38.4925 57.127 37.9805 57.019 37.5615 56.8032C37.1426 56.5874 36.8252 56.3081 36.6094 55.9653C36.3936 55.6226 36.2856 55.2607 36.2856 54.8799H37.4663C37.4832 55.2015 37.5763 55.4575 37.7456 55.6479C37.9149 55.8341 38.1222 55.9674 38.3677 56.0479C38.6131 56.124 38.8564 56.1621 39.0977 56.1621C39.4193 56.1621 39.688 56.1198 39.9038 56.0352C40.1239 55.9505 40.291 55.8341 40.4053 55.686C40.5195 55.5379 40.5767 55.3687 40.5767 55.1782ZM45.0454 57H43.8711V49.4082C43.8711 48.9131 43.96 48.4963 44.1377 48.1577C44.3197 47.8149 44.5799 47.5568 44.9185 47.3833C45.257 47.2056 45.659 47.1167 46.1245 47.1167C46.2599 47.1167 46.3953 47.1252 46.5308 47.1421C46.6704 47.159 46.8058 47.1844 46.937 47.2183L46.8735 48.1768C46.7847 48.1556 46.6831 48.1408 46.5688 48.1323C46.4588 48.1239 46.3488 48.1196 46.2388 48.1196C45.9891 48.1196 45.7733 48.1704 45.5913 48.272C45.4136 48.3693 45.2782 48.5132 45.1851 48.7036C45.092 48.894 45.0454 49.1289 45.0454 49.4082V57ZM46.5054 50.1318V51.0332H42.7856V50.1318H46.5054ZM50.5107 57.127C50.0326 57.127 49.5988 57.0465 49.2095 56.8857C48.8244 56.7207 48.4922 56.4901 48.2129 56.1938C47.9378 55.8976 47.7262 55.5464 47.5781 55.1401C47.43 54.7339 47.356 54.2896 47.356 53.8071V53.5405C47.356 52.9819 47.4385 52.4847 47.6035 52.0488C47.7686 51.6087 47.9928 51.2363 48.2764 50.9316C48.5599 50.627 48.8815 50.3963 49.2412 50.2397C49.6009 50.0832 49.9733 50.0049 50.3584 50.0049C50.8493 50.0049 51.2725 50.0895 51.6279 50.2588C51.9876 50.4281 52.2817 50.665 52.5103 50.9697C52.7388 51.2702 52.908 51.6257 53.0181 52.0361C53.1281 52.4424 53.1831 52.8867 53.1831 53.3691V53.896H48.0542V52.9375H52.0088V52.8486C51.9919 52.5439 51.9284 52.2477 51.8184 51.96C51.7126 51.6722 51.5433 51.4352 51.3105 51.249C51.0778 51.0628 50.7604 50.9697 50.3584 50.9697C50.0918 50.9697 49.8464 51.0269 49.6221 51.1411C49.3978 51.2511 49.2052 51.4162 49.0444 51.6362C48.8836 51.8563 48.7588 52.125 48.6699 52.4424C48.5811 52.7598 48.5366 53.1258 48.5366 53.5405V53.8071C48.5366 54.133 48.5811 54.4398 48.6699 54.7275C48.763 55.0111 48.8963 55.2607 49.0698 55.4766C49.2476 55.6924 49.4613 55.8617 49.7109 55.9844C49.9648 56.1071 50.2526 56.1685 50.5742 56.1685C50.9889 56.1685 51.3402 56.0838 51.6279 55.9146C51.9157 55.7453 52.1675 55.5189 52.3833 55.2354L53.0942 55.8003C52.9461 56.0246 52.7578 56.2383 52.5293 56.4414C52.3008 56.6445 52.0194 56.8096 51.6851 56.9365C51.355 57.0635 50.9635 57.127 50.5107 57.127ZM55.7285 51.2109V57H54.5542V50.1318H55.6968L55.7285 51.2109ZM57.874 50.0938L57.8677 51.1855C57.7703 51.1644 57.6772 51.1517 57.5884 51.1475C57.5037 51.139 57.4064 51.1348 57.2964 51.1348C57.0256 51.1348 56.7865 51.1771 56.5791 51.2617C56.3717 51.3464 56.1961 51.4648 56.0522 51.6172C55.9084 51.7695 55.7941 51.9515 55.7095 52.1631C55.6291 52.3704 55.5762 52.599 55.5508 52.8486L55.2207 53.0391C55.2207 52.6243 55.2609 52.235 55.3413 51.8711C55.4259 51.5072 55.555 51.1855 55.7285 50.9062C55.902 50.6227 56.1221 50.4027 56.3887 50.2461C56.6595 50.0853 56.9811 50.0049 57.3535 50.0049C57.4382 50.0049 57.5355 50.0155 57.6455 50.0366C57.7555 50.0535 57.8317 50.0726 57.874 50.0938Z" fill="#4B7EFF"/>
<path fill-rule="evenodd" clip-rule="evenodd" d="M43.2978 16.6832C42.9189 16.7506 42.3817 16.9269 41.5215 17.2136L32.4591 20.2344C30.8285 20.7779 29.6767 21.1631 28.8831 21.5146C28.4897 21.6889 28.2337 21.8341 28.0713 21.9563C27.9318 22.0611 27.9 22.1201 27.8966 22.1272C27.8005 22.3665 27.8005 22.6336 27.8967 22.8729C27.8932 22.8643 27.9124 22.9243 28.0713 23.0437C28.2337 23.1659 28.4897 23.3111 28.8831 23.4854C29.6767 23.8369 30.8285 24.2221 32.4591 24.7656C32.4962 24.778 32.533 24.7902 32.5695 24.8023C33.1041 24.9797 33.5758 25.1363 33.969 25.4312C34.1963 25.6017 34.3983 25.8037 34.5688 26.031C34.8637 26.4242 35.0203 26.8959 35.1977 27.4305C35.2098 27.467 35.222 27.5038 35.2344 27.5409C35.7779 29.1715 36.1631 30.3233 36.5146 31.1169C36.6889 31.5103 36.8341 31.7663 36.9563 31.9287C37.0757 32.0876 37.1357 32.1068 37.1271 32.1033C37.3664 32.1995 37.6336 32.1995 37.8729 32.1033C37.8643 32.1068 37.9243 32.0876 38.0437 31.9287C38.1659 31.7663 38.3111 31.5103 38.4854 31.1169C38.8369 30.3233 39.2221 29.1715 39.7656 27.5409L42.7864 18.4785C43.0731 17.6183 43.2494 17.0811 43.3168 16.7022C43.3182 16.6943 43.3196 16.6866 43.3208 16.6792C43.3134 16.6804 43.3057 16.6818 43.2978 16.6832ZM43.5568 16.66C43.5566 16.6602 43.5533 16.66 43.5475 16.6587C43.5541 16.6592 43.557 16.6599 43.5568 16.66ZM43.3413 16.4525C43.34 16.4467 43.3398 16.4434 43.34 16.4432C43.3401 16.443 43.3408 16.4459 43.3413 16.4525ZM42.9475 14.7141C43.4985 14.6161 44.253 14.5869 44.8331 15.1669C45.4131 15.747 45.3839 16.5015 45.2859 17.0525C45.1896 17.5939 44.9632 18.273 44.7077 19.0393L44.6838 19.111L41.663 28.1734L41.6444 28.229C41.1236 29.7916 40.709 31.0352 40.314 31.927C39.9424 32.7658 39.4589 33.6214 38.6186 33.9591C37.9008 34.2476 37.0992 34.2476 36.3814 33.9591C35.5411 33.6214 35.0576 32.7658 34.686 31.927C34.291 31.0352 33.8764 29.7916 33.3556 28.229L33.337 28.1734C33.1009 27.465 33.0433 27.3304 32.9688 27.2311C32.912 27.1553 32.8447 27.088 32.7689 27.0312C32.6696 26.9567 32.535 26.8991 31.8266 26.663L31.771 26.6444C30.2084 26.1236 28.9648 25.709 28.073 25.314C27.2342 24.9424 26.3786 24.4589 26.0409 23.6186C25.7524 22.9008 25.7524 22.0992 26.0409 21.3814C26.3786 20.5411 27.2342 20.0576 28.073 19.686C28.9648 19.291 30.2084 18.8764 31.771 18.3556L31.8266 18.337L40.889 15.3162L40.9607 15.2923C41.727 15.0368 42.4061 14.8104 42.9475 14.7141Z" fill="#4673E2"/>
</svg>
